<svg width="75" height="31" viewBox="0 0 75 31" fill="none" xmlns="http://www.w3.org/2000/svg">
<path d="M19.94 23L18.08 7.16L13.7 23H10.22L5.81 7.25L4.04 23H0.47L3.02 0.859999H6.62L11.99 18.59L17.33 0.859999H20.93L23.54 23H19.94ZM33.3034 23.15C31.5634 23.15 30.1734 22.9 29.1334 22.4C28.0934 21.9 27.3234 21.06 26.8234 19.88C26.3434 18.7 26.1034 17.05 26.1034 14.93C26.1034 12.73 26.3434 11.04 26.8234 9.86C27.3234 8.68 28.0834 7.86 29.1034 7.4C30.1434 6.94 31.5434 6.71 33.3034 6.71C35.0834 6.71 36.4834 6.95 37.5034 7.43C38.5434 7.89 39.3134 8.72 39.8134 9.92C40.3134 11.1 40.5634 12.77 40.5634 14.93C40.5634 17.09 40.3234 18.76 39.8434 19.94C39.3634 21.12 38.6034 21.95 37.5634 22.43C36.5234 22.91 35.1034 23.15 33.3034 23.15ZM33.3034 20.18C34.2034 20.18 34.8934 20.06 35.3734 19.82C35.8734 19.58 36.2434 19.09 36.4834 18.35C36.7234 17.59 36.8434 16.44 36.8434 14.9C36.8434 13.38 36.7234 12.25 36.4834 11.51C36.2434 10.75 35.8734 10.26 35.3734 10.04C34.8934 9.8 34.2034 9.68 33.3034 9.68C32.4234 9.68 31.7334 9.8 31.2334 10.04C30.7534 10.26 30.3934 10.75 30.1534 11.51C29.9134 12.25 29.7934 13.38 29.7934 14.9C29.7934 16.44 29.9134 17.59 30.1534 18.35C30.3934 19.09 30.7534 19.58 31.2334 19.82C31.7334 20.06 32.4234 20.18 33.3034 20.18ZM41.8426 6.92H45.6526L49.6726 19.55L53.7826 6.92H57.5626L51.7126 23H47.4526L41.8426 6.92ZM66.5539 23C64.1139 23 62.5139 21.63 61.7539 18.89L58.4539 6.92H62.2939L65.2039 18.14C65.3839 18.68 65.6039 19.08 65.8639 19.34C66.1239 19.6 66.3439 19.76 66.5239 19.82C66.7239 19.88 66.9539 19.92 67.2139 19.94L70.5439 6.92H74.3239L69.1639 27.14L67.7239 30.11H64.6939L66.5539 23Z" fill="white"/>
</svg>
